#!OML:ASF I:\golf\golf\golf 2\Subject 1\2002-09-07\Subject1.ASF
:FULLY-SPECIFIED
:DEGREES
274
root -5.45988 17.9796 -2.16632 -171.491 18.0228 -176.894
lowerback -1.5843 10.5152 16.7659
upperback -7.14766 18.0078 9.71612
thorax -5.71287 9.43902 1.02843
lowerneck -7.16971 -20.0328 1.53916
upperneck 10.0158 -28.8121 2.12064
head 4.72333 -14.292 -1.35704
rclavicle -7.95139e-014 1.59028e-014
rhumerus 85.0076 41.2263 -58.2436
rradius 41.7778
rwrist -0.898965
rhand -10.7251 14.4975
rfingers 7.12502
rthumb 15.2853 -14.9177
lclavicle -7.95139e-014 1.59028e-014
lhumerus 40.8746 2.07049 78.4705
lradius 60.0268
lwrist 44.3403
lhand -23.8515 25.3892
lfingers 7.12502
lthumb -177.379 235.353
rfemur 8.8263 -3.45427 13.9767
rtibia 27.5207
rfoot 10.3032 -26.9917
rtoes 12.9356
lfemur -24.0449 -15.7106 -15.3448
ltibia 25.7301
lfoot 11.4045 -40.852
ltoes 37.5845
275
root -5.43582 17.9822 -2.2278 -171.132 16.611 -176.693
lowerback -1.76284 10.6892 16.978
upperback -7.58404 18.2899 9.23732
thorax -5.87408 9.53868 0.45849
lowerneck -7.97977 -19.935 1.29064
upperneck 10.3829 -28.6525 2.59748
head 4.62044 -14.1461 -1.22018
rclavicle -1.01778e-013 5.08889e-014
rhumerus 87.7501 40.3592 -57.3423
rradius 42.2183
rwrist -0.436456
rhand -11.9287 15.3211
rfingers 7.12502
rthumb 14.1257 -14.1787
lclavicle -1.01778e-013 5.08889e-014
lhumerus 43.129 3.38203 78.207
lradius 60.9924
lwrist 42.9853
lhand -23.6508 24.237
lfingers 7.12502
lthumb -177.185 234.198
rfemur 9.3801 -3.74189 14.7288
rtibia 26.6325
rfoot 10.6039 -27.6921
rtoes 12.9306
lfemur -24.5551 -16.292 -14.9946
ltibia 26.0623
lfoot 12.385 -41.3478
ltoes 38.6796
276
root -5.41309 17.982 -2.28728 -170.776 15.2072 -176.537
lowerback -1.88665 10.8079 17.1622
upperback -8.11787 18.5447 8.7298
thorax -6.1755 9.61561 -0.157858
lowerneck -8.36993 -19.9191 1.07515
upperneck 10.2498 -28.5376 2.81583
head 4.69752 -14.0582 -1.17767
rclavicle -1.25632e-013 -1.27222e-013
rhumerus 90.2345 39.6515 -56.6593
rradius 42.5962
rwrist -0.23193
rhand -13.4498 16.5812
rfingers 7.12502
rthumb 12.6596 -13.0152
lclavicle -1.25632e-013 -1.27222e-013
lhumerus 45.1367 4.56846 77.7985
lradius 61.8204
lwrist 41.6522
lhand -23.6153 22.4288
lfingers 7.12502
lthumb -177.151 232.39
rfemur 9.92796 -4.0906 15.4312
rtibia 25.6904
rfoot 11.1409 -28.181
rtoes 12.2767
lfemur -25.1062 -16.7465 -14.695
ltibia 26.4225
lfoot 13.4527 -41.9756
ltoes 39.7453
277
root -5.39034 17.9839 -2.34535 -170.367 13.8149 -176.253
lowerback -2.14903 10.8375 17.3862
upperback -8.57403 18.6878 8.39716
thorax -6.38182 9.66829 -0.581638
lowerneck -8.39189 -19.8558 0.802768
upperneck 9.76877 -28.2614 2.90832
head 4.59462 -13.9178 -1.08018
rclavicle 1.03368e-013 -5.725e-014
rhumerus 92.8481 39.1359 -55.451
rradius 43.3075
rwrist -0.922308
rhand -15.6628 18.1099
rfingers 7.12502
rthumb 10.5254 -11.6066
lclavicle 1.03368e-013 -5.725e-014
lhumerus 46.9882 5.89602 77.2833
lradius 62.5744
lwrist 40.5199
lhand -23.8337 20.1708
lfingers 7.12502
lthumb -177.362 230.134
rfemur 10.4087 -4.50132 16.2674
rtibia 24.7307
rfoot 11.586 -28.7094
rtoes 12.0864
lfemur -25.7028 -17.148 -14.233
ltibia 26.7756
lfoot 14.4635 -42.6367
ltoes 40.6208
278
root -5.36742 17.9873 -2.4045 -169.958 12.4675 -175.881
lowerback -2.46629 10.863 17.643
upperback -8.96309 18.8219 8.14797
thorax -6.5078 9.7324 -0.91395
lowerneck -8.41574 -19.828 0.442198
upperneck 8.9173 -28.0014 2.91652
head 4.84545 -13.792 -1.06565
rclavicle 1.02573e-013 2.79889e-013
rhumerus 94.9239 38.6107 -54.9806
rradius 44.5132
rwrist 1.10509
rhand -15.6519 17.2618
rfingers 7.12502
rthumb 10.5359 -12.4541
lclavicle 1.02573e-013 2.79889e-013
lhumerus 48.9025 7.33955 76.9262
lradius 63.5938
lwrist 39.9933
lhand -23.7901 19.2911
lfingers 7.12502
lthumb -177.32 229.254
rfemur 10.8689 -4.88975 17.1834
rtibia 23.7667
rfoot 11.651 -29.3849
rtoes 13.3493
lfemur -26.2737 -17.6346 -13.6459
ltibia 27.1128
lfoot 15.6404 -43.0008
ltoes 41.7444
279
root -5.34889 17.9919 -2.46418 -169.464 11.2216 -175.66
lowerback -2.74566 11.0135 17.7682
upperback -9.48136 19.1352 7.7185
thorax -6.74735 9.86769 -1.38162
lowerneck -8.49439 -19.923 0.0789719
upperneck 8.56537 -27.9741 2.98811
head 4.79566 -13.7734 -0.99264
rclavicle 2.70347e-014 9.54166e-015
rhumerus 96.7643 37.7962 -54.294
rradius 45.7855
rwrist 1.94971
rhand -16.3167 17.2353
rfingers 7.12502
rthumb 9.89461 -12.5121
lclavicle 2.70347e-014 9.54166e-015
lhumerus 50.9245 8.63074 76.9373
lradius 64.9067
lwrist 40.4911
lhand -22.806 19.6715
lfingers 7.12502
lthumb -176.37 229.62
rfemur 11.1806 -5.24359 17.9133
rtibia 22.7719
rfoot 12.2139 -29.6487
rtoes 14.0287
lfemur -26.9638 -18.1596 -13.1709
ltibia 27.4258
lfoot 16.3356 -43.4027
ltoes 42.1388
280
root -5.33159 17.9964 -2.52318 -168.867 10.0481 -175.47
lowerback -3.1301 11.1821 17.7676
upperback -10.0431 19.4651 7.2575
thorax -6.99553 10.0227 -1.80414
lowerneck -8.54808 -19.9494 -0.276098
upperneck 8.2235 -27.8856 3.15964
head 4.76091 -13.7226 -0.887827
rclavicle 1.55052e-013 8.5875e-014
rhumerus 98.3919 37.0246 -53.7081
rradius 47.0118
rwrist 2.44651
rhand -17.217 18.0057
rfingers 7.12502
rthumb 9.026 -11.7812
lclavicle 1.55052e-013 8.5875e-014
lhumerus 52.8236 9.6296 77.1006
lradius 66.1556
lwrist 40.4222
lhand -22.2588 19.3719
lfingers 7.12502
lthumb -175.841 229.311
rfemur 11.3627 -5.55443 18.6162
rtibia 21.7533
rfoot 13.0713 -29.8163
rtoes 13.524
lfemur -27.7605 -18.5502 -12.6985
ltibia 27.6975
lfoot 16.9684 -43.8767
ltoes 42.1729
281
root -5.31126 17.9989 -2.5818 -168.399 8.93081 -175.246
lowerback -3.54397 11.2816 17.7164
upperback -10.5092 19.6809 6.89583
thorax -7.17819 10.1377 -2.0934
lowerneck -8.55418 -19.8885 -0.479191
upperneck 7.8502 -27.684 3.24465
head 4.66478 -13.6221 -0.801339
rclavicle -1.00187e-013 2.54444e-014
rhumerus 99.9982 36.4599 -53.1677
rradius 48.3755
rwrist 3.18246
rhand -18.3241 18.5538
rfingers 7.12502
rthumb 7.95756 -11.2764
lclavicle -1.00187e-013 2.54444e-014
lhumerus 54.4735 10.4778 76.8472
lradius 67.2364
lwrist 39.5178
lhand -22.8284 17.9543
lfingers 7.12502
lthumb -176.391 227.903
rfemur 11.6972 -5.81345 19.3437
rtibia 20.7151
rfoot 12.894 -30.6935
rtoes 14.8631
lfemur -28.3722 -18.8925 -12.2326
ltibia 27.9334
lfoot 18.6008 -43.8435
ltoes 43.5874
282
root -5.29382 17.999 -2.64086 -168.212 7.75042 -175.145
lowerback -3.81119 11.3011 17.6619
upperback -10.9361 19.7901 6.52487
thorax -7.40153 10.1844 -2.4311
lowerneck -8.24598 -19.8262 -0.778372
upperneck 7.38256 -27.5099 3.48812
head 4.51786 -13.5438 -0.62153
rclavicle -1.22451e-013 -1.03368e-013
rhumerus 101.419 35.6996 -52.5126
rradius 50.0677
rwrist 3.63054
rhand -19.6946 18.9588
rfingers 7.12502
rthumb 6.63464 -10.9172
lclavicle -1.22451e-013 -1.03368e-013
lhumerus 55.8647 11.3234 75.8824
lradius 68.1713
lwrist 38.4517
lhand -23.7622 16.1409
lfingers 7.12502
lthumb -177.293 226.104
rfemur 12.3511 -6.27026 19.8711
rtibia 19.6023
rfoot 12.7775 -31.5316
rtoes 15.8347
lfemur -28.7014 -19.3969 -11.9766
ltibia 28.1637
lfoot 19.9613 -43.8453
ltoes 44.9128
283
root -5.28263 17.9961 -2.69947 -168.252 6.44082 -175.18
lowerback -3.90514 11.2432 17.6036
upperback -11.3385 19.8142 6.14467
thorax -7.69722 10.1718 -2.82769
lowerneck -7.76815 -19.7751 -1.29994
upperneck 6.92157 -27.3616 3.85568
head 4.39865 -13.4814 -0.372753
rclavicle -1.36764e-013 5.88403e-014
rhumerus 102.496 35.0904 -52.1469
rradius 51.785
rwrist 4.3259
rhand -20.8771 19.7707
rfingers 7.12502
rthumb 5.49303 -10.1381
lclavicle -1.36764e-013 5.88403e-014
lhumerus 57.2797 12.4313 75.3332
lradius 69.4886
lwrist 38.8668
lhand -23.0271 15.9797
lfingers 7.12502
lthumb -176.583 225.932
rfemur 13.2826 -6.98413 20.1967
rtibia 18.4025
rfoot 13.4473 -31.8797
rtoes 15.2411
lfemur -28.8299 -20.0983 -11.9121
ltibia 28.3997
lfoot 20.5614 -44.1866
ltoes 45.2861
284
root -5.26999 17.9966 -2.75722 -168.237 5.22091 -175.15
lowerback -3.99528 11.2218 17.5116
upperback -11.7095 19.8821 5.78029
thorax -7.96708 10.187 -3.18644
lowerneck -7.54115 -19.7829 -1.70844
upperneck 6.6171 -27.2985 4.0737
head 4.3429 -13.4544 -0.222798
rclavicle 1.67774e-013 -6.20208e-014
rhumerus 103.486 34.5234 -51.9145
rradius 53.429
rwrist 5.39353
rhand -21.9958 20.3547
rfingers 7.12502
rthumb 4.41279 -9.57931
lclavicle 1.67774e-013 -6.20208e-014
lhumerus 58.5951 13.3266 74.7285
lradius 70.8355
lwrist 39.0103
lhand -22.8256 15.7429
lfingers 7.12502
lthumb -176.389 225.692
rfemur 14.1569 -7.50358 20.621
rtibia 17.1635
rfoot 13.7379 -32.3928
rtoes 15.7319
lfemur -28.9869 -20.7462 -11.7434
ltibia 28.6424
lfoot 21.0242 -44.4586
ltoes 45.5629
